<?xml version="1.0" encoding="UTF-8" standalone="no"?>
<svg width="205px" height="100px" viewBox="0 0 205 100" version="1.1" xmlns="http://www.w3.org/2000/svg" xmlns:xlink="http://www.w3.org/1999/xlink" xmlns:sketch="http://www.bohemiancoding.com/sketch/ns">
    <!-- Generator: Sketch 3.3.2 (12043) - http://www.bohemiancoding.com/sketch -->
    <title>Imported Layers + vmware</title>
    <desc>Created with Sketch.</desc>
    <defs></defs>
    <g id="Appliance" stroke="none" stroke-width="1" fill="none" fill-rule="evenodd" sketch:type="MSPage">
        <g sketch:type="MSArtboardGroup" transform="translate(-1081.000000, -432.000000)" id="Group">
            <g sketch:type="MSLayerGroup" transform="translate(99.000000, 50.000000)">
                <g id="Partners" transform="translate(1.000000, 99.000000)" sketch:type="MSShapeGroup">
                    <g id="v1" transform="translate(305.000000, 72.000000)">
                        <g id="Med" transform="translate(0.000000, 154.000000)">
                            <g id="Cloudstack" transform="translate(668.000000, 57.000000)">
                                <g id="Imported-Layers-+-vmware" transform="translate(8.000000, 0.000000)">
                                    <path d="M192.440912,28.6562953 C192.440912,18.350798 183.792715,10 173.120205,10 C164.835132,10 157.78969,15.0378849 155.039129,22.1151056 C153.219334,20.1886184 150.623206,18.9553442 147.705691,18.9553442 C142.208744,18.9553442 137.755256,23.2556827 137.755256,28.5635983 C137.755256,29.1923263 137.822037,29.8009028 137.947253,30.3933581 C130.613815,31.5621473 125,37.6680638 125,45.0717395 C125,53.3217798 131.920227,60 140.459905,60 L189.540093,60 C198.07977,60 204.999998,53.3217798 204.999998,45.0717395 C205.004171,37.7607609 199.544788,31.7032081 192.353261,30.4175399 C192.415869,29.8412059 192.440912,29.2487506 192.440912,28.6562953 Z" id="Imported-Layers" fill="#3B4152" transform="translate(165.000000, 35.000000) scale(-1, 1) translate(-165.000000, -35.000000) "></path>
                                    <path d="M67.4409121,38.6562953 C67.4409121,28.350798 58.7927149,20 48.1202052,20 C39.8351321,20 32.7896896,25.0378849 30.0391289,32.1151056 C28.2193345,30.1886184 25.6232058,28.9553442 22.7056914,28.9553442 C17.2087437,28.9553442 12.755256,33.2556827 12.755256,38.5635983 C12.755256,39.1923263 12.8220375,39.8009028 12.9472527,40.3933581 C5.61381524,41.5621473 0,47.6680638 0,55.0717395 C0,63.3217798 6.92022727,70 15.4599046,70 L64.540093,70 C73.0797703,70 79.9999976,63.3217798 79.9999976,55.0717395 C80.0041714,47.7607609 74.5447883,41.7032081 67.3532614,40.4175399 C67.415869,39.8412059 67.4409121,39.2487506 67.4409121,38.6562953 Z" id="Imported-Layers" fill="#3B4152" transform="translate(40.000000, 45.000000) scale(-1, 1) translate(-40.000000, -45.000000) "></path>
                                    <path d="M155.881824,37.3125907 C155.881824,16.701596 138.58543,0 117.24041,0 C100.670264,0 86.5793793,10.0757698 81.0782577,24.2302112 C77.4386689,20.3772368 72.2464116,17.9106884 66.4113828,17.9106884 C55.4174874,17.9106884 46.5105121,26.5113655 46.5105121,37.1271965 C46.5105121,38.3846526 46.644075,39.6018056 46.8945054,40.7867161 C32.2276305,43.1242947 21,55.3361277 21,70.143479 C21,86.6435596 34.8404545,100 51.9198092,100 L150.080186,100 C167.159541,100 180.999995,86.6435596 180.999995,70.143479 C181.008343,55.5215218 170.089577,43.4064163 155.706523,40.8350798 C155.831738,39.6824117 155.881824,38.4975012 155.881824,37.3125907 Z" id="Imported-Layers" fill="#FFFFFF"></path>
                                    <g id="cloudstack" transform="translate(60.000000, 45.000000)" fill="#5EA1C5">
                                        <path d="M38.017459,7.00045294 C37.8607531,6.67721288 37.5591957,6.5062335 37.145528,6.5062335 C37.0066603,6.5062335 36.8750182,6.52575117 36.7683272,6.548693 L36.7922621,6.27704351 C36.8122455,5.97663113 36.7452955,5.74082112 36.5928797,5.57600521 C36.399594,5.36678945 36.1355196,5.35058179 36.0593117,5.35058179 C36.0433927,5.35058179 36.0345865,5.35115248 36.0341349,5.35115248 C35.8293332,5.36439254 35.6606598,5.44634394 35.5326306,5.59495219 C35.2648304,5.90563702 35.280072,6.41024307 35.2844751,6.49276516 C35.2704754,6.79671583 35.0199491,7.19368932 34.8467596,7.26034617 C34.6714251,7.32768785 34.5169771,7.56304131 34.4861552,7.61212084 C34.2550478,7.99516945 34.3942542,8.61688153 34.4834456,8.91752218 L27.6152528,11.4008322 C26.7584504,11.6663182 25.9532436,11.7946098 25.8010536,11.8175517 C25.7231522,11.8020288 25.6653471,11.7730377 25.6288803,11.7311489 C25.6560893,11.733774 25.683637,11.7351437 25.7112977,11.7351437 C25.8531008,11.7351437 25.9599047,11.6998749 25.998178,11.6851511 C26.2927356,11.6046835 26.6186795,11.4232034 26.8722542,11.1982365 C26.9764614,11.1057844 27.1560862,10.8751106 27.1761825,10.8492011 L27.1892789,10.8295693 C27.7660879,9.82412381 29.8358939,8.59964662 29.8567805,8.58743381 L29.8853444,8.56620406 C30.4656533,8.03466135 30.4602341,7.3212961 30.4281703,7.02601995 C30.6082467,6.91747429 30.7403404,6.74284248 30.8139515,6.51410905 C30.9831895,5.98815912 30.8162095,5.29602362 30.5730217,4.91183363 C30.3863971,4.61712817 30.0569532,4.46144334 29.6203668,4.46144334 C29.5276754,4.46144334 29.4451451,4.4687482 29.3818079,4.47696617 C29.3331477,4.29069224 29.3692759,3.85673789 29.445258,3.51021358 C29.6527692,2.60486748 29.2881004,1.5555928 29.2725201,1.51130708 L29.2661977,1.49578426 C28.9473665,0.813464662 28.2267222,0 26.6034379,0 C26.117401,0 25.7560063,0.0781848314 25.7032817,0.0901693676 C23.0391671,0.532684099 21.8485178,2.831204 21.5737178,3.44960607 C21.4560755,3.42061491 21.3177723,3.40600519 21.1603889,3.40600519 C20.7770915,3.40600519 20.4027132,3.4912666 20.384762,3.49537559 C19.2324989,3.77718339 19.1695003,4.99538297 19.295949,5.59392494 C19.4617999,6.55063335 20.5486936,6.85880714 20.9243138,6.93733438 C21.2784829,9.03497063 22.9301052,10.4843005 23.0015713,10.5460494 L23.0276513,10.564654 C23.0808275,10.5953572 23.1124396,10.6310826 23.1224878,10.671031 C22.4315363,10.6486599 21.8779849,11.1500701 21.8617272,11.1654788 C21.5338639,11.4430634 21.1096965,11.583682 20.6009666,11.583682 C20.219024,11.583682 19.931692,11.4999044 19.9290953,11.4991054 L19.9077571,11.4927137 L19.8856286,11.492143 C19.5890388,11.4836967 19.3873984,11.418752 19.3176259,11.3089508 C19.2894007,11.2645509 19.2854492,11.2139876 19.289062,11.1727836 C19.5692812,11.1176547 19.7825504,10.9760089 19.9240148,10.7508138 C20.3118282,10.1335531 19.9925455,9.08987122 19.9423047,8.93624088 C19.7026168,7.07920846 18.7128176,6.87809653 18.2974564,6.87809653 C18.1756367,6.87809653 18.0900581,6.89487488 18.0636393,6.90081008 C17.4659438,7.00319226 16.9776488,7.37379978 16.6518178,7.97291245 C16.4104364,8.41656857 16.3430348,8.82826592 16.3402122,8.84561496 L16.3387445,8.8575995 C16.2302471,10.0921209 17.5641672,10.9545509 17.8723858,11.1364876 C18.2883115,12.3934942 19.0396647,12.6730193 19.0720672,12.6845473 L19.0937441,12.6921945 L21.5917819,12.8630598 C21.3164175,13.7842711 20.4374866,14.2595436 19.9416273,14.4599707 C19.628554,13.8935016 18.1430084,11.5379125 14.8171836,10.9497571 C14.6360911,9.19921585 15.6071489,7.58301554 15.6823407,7.46100155 C17.7183894,4.92427472 17.2829319,3.18526145 17.2243365,2.98894333 C17.0895333,2.08279825 16.4770477,0.580508106 13.9020117,0.580508106 C13.4318937,0.580508106 13.1039176,0.63655008 13.0992887,0.637691464 C11.7779005,0.792463189 10.9051791,1.14960237 10.5055111,1.69917896 C10.2735005,2.0181959 10.2833228,2.29555231 10.293371,2.38035717 C10.2870485,2.57039767 10.3384183,2.72471284 10.4462383,2.83942197 C10.5732515,2.97456188 10.7695856,3.04304495 11.0295956,3.04304495 C11.3585878,3.04304495 11.6962734,2.93324377 11.7461754,2.91635128 C12.0563133,2.83063331 12.4128533,2.6322607 12.7512162,2.35741534 C13.0457738,2.11795289 13.4421677,2.06773198 13.7227256,2.06773198 C13.9072051,2.06773198 14.0361375,2.09010311 14.0434761,2.0912445 C14.8284737,2.20184465 15.3777349,2.49940356 15.6759053,2.97593155 C16.1336042,3.70721653 15.8529334,4.63653171 15.8479658,4.65273937 C15.739807,5.05758841 15.4278628,5.50546765 15.2415769,5.7731223 C15.2026262,5.82905013 15.1696592,5.87653172 15.1453856,5.91362671 C14.2544872,7.27541244 13.9950417,7.97747799 13.9842033,8.00761054 C13.5746,9.15447358 13.5202949,10.4464066 13.5143111,10.8896061 C12.158827,10.9913035 10.2404206,11.5871062 8.511913,13.7648676 L8.49780043,13.7855266 C8.44959189,13.8687336 7.36100466,15.7619479 7.19481503,17.2612704 C7.02568998,17.2335348 6.75382543,17.2010053 6.4077852,17.2010053 C5.00702792,17.2010053 2.38558974,17.7360863 0.563713358,21.3291644 C0.538197831,21.3879457 -0.0609654575,22.7937889 0.00508137187,24.648082 C0.0661605765,26.3640393 0.737128623,28.789367 3.58594853,30.601543 C3.67830119,30.669113 4.61345655,31.3144517 6.56957171,31.3144517 C6.77403463,31.3144517 6.98561028,31.3073751 7.1900732,31.2934502 C7.21095981,31.2931078 7.70670618,31.2782698 8.06956859,30.7310901 L8.08379406,30.7047242 C8.09429381,30.6807551 8.18235625,30.4650334 8.06042365,30.2760202 C7.91726573,30.0540209 7.58398327,30.0047131 7.03765744,30.129923 C7.00356147,30.1342602 6.83059781,30.1548052 6.57329743,30.1548052 C6.04006807,30.1548052 5.2444578,30.0710275 4.48633052,29.6739399 C4.45991179,29.6589878 1.84366704,28.1602359 1.40956438,25.9742565 L1.40245164,25.9486895 C1.3945486,25.9268891 0.621857148,23.731322 1.88860147,21.4693264 C1.89661741,21.4556298 2.70035651,20.0916755 3.58256151,19.4730451 L3.60243201,19.4567233 C3.61383497,19.4458802 4.7638401,18.3679567 6.49855726,18.3679567 C6.75608344,18.3679567 7.01744824,18.3916975 7.27542603,18.4387226 L7.29078051,18.4406629 C7.30173186,18.4418043 8.40657677,18.5634759 10.5586873,20.3260017 L10.5858963,20.3481445 L10.6194278,20.3577322 C10.6329759,20.3614987 10.7563762,20.3953978 10.8995341,20.3953978 C11.1387704,20.3953978 11.2619449,20.2994074 11.323137,20.2189398 C11.4159413,20.0968117 11.4349086,19.9285716 11.3795873,19.7187852 L11.3736036,19.7002947 C11.3484267,19.6359207 10.7422636,18.1427616 8.38106124,17.5556335 C8.38772238,17.1061563 8.46991399,15.610372 9.24429895,14.9164103 L9.26721776,14.8957513 L9.28166904,14.8682439 C9.29623321,14.84028 10.7801982,12.0713956 13.9224467,12.0713956 C14.0993619,12.0713956 14.280906,12.0801842 14.4619985,12.0976474 L14.487514,12.0983322 C14.5063684,12.0983322 14.5629316,12.0991312 14.6505424,12.1062078 C14.6758321,12.1467269 14.7171537,12.1785715 14.7869263,12.1785715 L14.8634729,12.1785715 L14.9007301,12.1357696 C15.9063354,12.2883727 18.0715424,12.9988845 19.4133656,16.2266055 C19.4507357,16.3577505 19.9045959,17.9992896 19.630812,19.3724891 L19.4273652,19.538903 C19.2117252,19.6412852 17.5614576,20.4752948 16.748122,22.3871136 L16.742364,22.4024082 C16.7182033,22.4786527 16.1561843,24.2769038 16.774202,25.017434 L16.7966692,25.0443706 L16.8279427,25.0602359 C16.8404746,25.0666276 16.9545042,25.1219848 17.1078232,25.1219848 C17.257868,25.1219848 17.5374098,25.0654863 17.7243731,24.687688 L17.7469533,24.6416902 L17.7410824,24.5907845 C17.7389373,24.5737779 17.557619,22.8823603 18.9224739,21.3332734 C19.0378583,21.2444737 20.1171877,20.4448198 21.567847,20.4448198 C22.8287205,20.4448198 24.0111281,21.0346872 25.0824415,22.1981004 C25.1991807,22.3792381 26.8305939,25.0138957 24.8455762,27.4292933 C23.5600903,28.5559539 23.7004257,28.7683655 23.7678274,28.8706336 L23.7936816,28.9013368 C23.8140037,28.9205121 24.0036767,29.0877249 24.3728615,29.0877249 C24.5783405,29.0877249 24.8008675,29.0355636 25.0345717,28.9326107 L25.0586195,28.9219959 L25.0783771,28.9045327 C25.1655364,28.8273751 27.2150203,26.9858655 27.2727125,24.4724229 C27.3052278,23.0629273 26.6990647,21.7313883 25.4708195,20.513417 C25.5157539,20.2151732 25.6053969,19.2994405 25.0965541,18.8935643 C25.03762,18.8013404 24.8742529,18.6277358 24.4800041,18.6277358 C24.1391573,18.6277358 23.6941033,18.758995 23.1570353,19.0180893 C23.1087139,19.0324707 22.8744452,19.0962741 22.5497432,19.0962741 C22.5020992,19.0962741 22.4544551,19.0949045 22.4068111,19.0921651 C22.779383,18.8576106 23.1792767,18.3847351 23.2554846,18.2925112 C24.1146579,17.4896614 25.7012495,14.6376842 25.7693286,14.5148713 C26.2120117,13.6998087 26.8103847,13.3833028 26.8159168,13.3804493 L26.8714639,13.3520288 L26.881512,13.3278315 C27.3019537,13.0352947 31.9025387,11.0670914 34.9947723,9.77241909 L35.3812309,10.012224 L35.3976015,10.0211268 C35.713836,10.1717895 36.039667,10.248034 36.3661754,10.248034 C37.2960244,10.248034 37.9188969,9.63819229 37.9449769,9.61216872 L37.9681215,9.58340584 C38.70333,8.43688521 38.0456842,7.05820699 38.017459,7.00045294 L38.017459,7.00045294 Z M20.6457881,6.00322539 C20.4776792,5.92983437 20.2502974,5.77083953 20.2192498,5.44223496 L20.2172176,5.42705455 C20.2164273,5.4230597 20.1500417,5.02848311 20.3335052,4.75831743 C20.424503,4.6243189 20.5609998,4.54191094 20.7590274,4.50447353 C20.759479,4.50447353 20.8066714,4.49351624 20.868428,4.49351624 C20.9852801,4.49351624 21.0456819,4.52889916 21.0783102,4.5655376 C20.9628129,4.7674485 20.7051738,5.28814806 20.6457881,6.00322539 L20.6457881,6.00322539 Z M18.6822215,10.5520988 C18.6354807,10.5520988 18.6053362,10.5444515 18.6049975,10.5444515 L18.5864818,10.539886 C17.6845192,10.3707328 17.3117216,9.60395076 17.2662227,9.5028241 C17.0746304,8.74916798 17.6809064,8.10702512 17.6935513,8.09355678 C17.881192,7.8756665 18.1058641,7.83001112 18.2612153,7.83001112 C18.3248912,7.83001112 18.3725353,7.83777254 18.3916155,7.84165324 C18.9856982,8.10691098 19.1821452,9.07548978 19.1840645,9.08530569 L19.190387,9.10904648 C19.3739633,9.6361378 19.3347868,9.89466136 19.3275611,9.9312998 C19.1217434,10.4711746 18.8352018,10.5520988 18.6822215,10.5520988 L18.6822215,10.5520988 Z M29.5282399,5.35126662 C29.6159636,5.35126662 29.6879942,5.38094262 29.7498637,5.44360462 C29.7533636,5.44691463 30.0796463,5.78031302 29.9487945,6.0436304 C29.9193275,6.05458769 29.873264,6.05960978 29.861974,6.05435941 C29.8042818,5.98427841 29.5589489,5.69550816 29.2947615,5.51802288 C29.2921648,5.51619667 29.2432789,5.48172686 29.2400048,5.43321802 C29.3018743,5.40023201 29.4133071,5.35126662 29.5282399,5.35126662 L29.5282399,5.35126662 Z M24.6089366,14.3155856 L24.6045335,14.3276842 C24.5934692,14.3631813 23.4873824,17.7925849 20.972861,18.2933102 C20.9587485,17.8030856 20.8873953,16.5455083 20.5288231,15.8219847 C20.9537808,15.6013551 22.1036731,14.9018006 23.4676248,13.2249928 C23.4711247,13.2200848 23.8710185,12.675302 24.3921675,12.8124964 C24.3941997,12.812953 24.5967433,12.867397 24.7133696,13.0955598 C24.8534792,13.3693779 24.817351,13.7913477 24.6089366,14.3155856 L24.6089366,14.3155856 Z M24.3104275,10.5548381 C24.2902183,10.542397 22.3116359,9.29988595 22.624935,7.55836164 C22.6860142,7.48063336 22.9025575,7.23968711 23.2984997,7.14723497 L23.5281395,7.09370405 L23.4046263,6.8907659 C23.3918685,6.86976443 22.141269,4.77692199 23.2682424,3.32325482 C23.2778389,3.31081373 24.2502515,2.07903168 25.4814321,2.07903168 C26.023129,2.07903168 26.5449554,2.31872241 27.032573,2.79148383 L27.1276352,2.88359355 L27.2392939,2.81328427 C27.2434712,2.81065909 27.6667354,2.54711343 28.0546618,2.54711343 C28.2584473,2.54711343 28.4017181,2.61822168 28.5015222,2.76991166 C28.475668,3.00492271 28.3894119,3.88025041 28.4455235,4.63447722 C28.4510556,4.67784983 28.5883427,5.69585057 29.4188393,6.30455087 C29.5039663,6.40670478 30.0014062,7.05581008 29.4238069,7.65263999 C29.2239729,7.79565545 27.1490863,9.29771732 26.7100161,10.2756555 C26.6405822,10.3666238 26.169674,10.943936 25.4238528,10.943936 C25.0682161,10.943936 24.6956442,10.8142748 24.3104275,10.5548381 L24.3104275,10.5548381 Z M35.7671644,6.71487856 C35.8888704,6.74641993 35.9628978,6.87848523 35.9711429,6.97152092 L35.7316742,6.97583233 C35.7418911,6.91751483 35.7539004,6.82606756 35.7671644,6.71487856 L35.7671644,6.71487856 Z M37.4742944,8.96089479 C37.4606335,8.9844073 37.1101901,9.55635503 36.1505353,9.51526519 L36.1435355,9.51503691 L36.115762,9.51549347 C35.9326372,9.51549347 35.3344901,9.47896917 35.3206033,9.00837638 L35.3199259,8.984978 L35.313039,8.96249272 C35.3089745,8.94902439 35.2116543,8.63696989 35.0420776,8.42980862 C35.0233361,8.38894706 34.942838,8.16466503 35.240331,7.85592055 C35.3142809,7.78720921 35.3863114,7.74737489 35.4558582,7.7087961 C35.6894494,7.57947725 35.8476231,7.45312599 35.8791224,6.93790508 C35.9076862,6.85161641 35.9277825,6.70346472 35.9618785,6.4519036 C35.9815232,6.30626295 36.0098612,6.09761788 36.0273608,6.0071061 C36.0605536,5.98587635 36.1017623,5.96635867 36.1291971,5.96635867 C36.1529062,5.96635867 36.1938892,6.03780934 36.2109371,6.19657591 L36.2130822,6.21118563 C36.2424364,6.36310389 36.2887256,6.81577694 36.1524546,7.08263262 L35.979491,7.42162378 L36.3449501,7.32711716 C36.3483371,7.32620405 36.6838776,7.24048608 37.0004508,7.24048608 C37.2116877,7.24048608 37.3221045,7.27838004 37.3774258,7.31011053 C37.4346663,7.3429824 37.5166321,7.45529462 37.5750017,7.67170111 C37.6736768,8.03751481 37.6717575,8.61391393 37.4742944,8.96089479 Z M23.9436136,5.66640285 C24.0320147,5.66640285 24.1275286,5.63478651 24.2275585,5.57246692 L24.3048954,5.52087634 L24.3079437,5.42933731 C24.3095243,5.38607885 24.3351527,5.1727541 24.6893218,5.14969814 C24.7675619,5.16887339 25.0964412,5.26463555 25.1314404,5.51882185 L25.1453272,5.6190354 L25.2388088,5.65510315 C25.2517924,5.66012524 25.3208875,5.6852357 25.4012727,5.6852357 C25.5706236,5.6852357 25.6891692,5.57486382 25.7032817,5.40399858 L25.7046365,5.38836161 L25.7030559,5.37272465 C25.6782178,5.12253319 25.4381912,4.63870034 24.7074988,4.59053392 C24.6808542,4.58608252 24.616388,4.57717972 24.5308094,4.57717972 C24.0499659,4.57717972 23.7082159,4.83867089 23.5930573,5.29453982 L23.5825576,5.33562965 L23.5923799,5.37694777 C23.6256856,5.51631081 23.7497633,5.66640285 23.9436136,5.66640285 Z M26.892915,5.69539402 L26.8930279,5.69539402 C27.1058454,5.69539402 27.228907,5.51185941 27.2446002,5.32421581 C27.2968732,5.1317784 27.4691594,5.1026731 27.4869977,5.10016205 L27.5031425,5.09753687 C27.6806222,5.0602136 27.8040225,5.21464291 27.8383443,5.26840211 C27.9154554,5.65042347 28.1423855,5.69242642 28.238351,5.69242642 C28.2917529,5.69242642 28.3308165,5.68009947 28.345042,5.67473496 L28.3663802,5.66697355 L28.3848959,5.65361935 C28.5804397,5.51322907 28.4704745,5.20676736 28.4285884,5.1086083 C28.258786,4.75649121 27.9474062,4.56257 27.5518027,4.56257 C27.3829034,4.56257 27.2532936,4.59795292 27.2182944,4.60856779 C26.622631,4.74941463 26.5673097,5.43550079 26.5652775,5.46472023 L26.5573745,5.57691832 L26.6560496,5.62885131 C26.7412895,5.67359358 26.8187393,5.69539402 26.892915,5.69539402 Z M27.4757077,8.69038668 C27.5594799,8.55170848 27.7253308,8.39180052 27.9425515,8.24011054 L27.96468,8.22470185 C28.0813063,8.14332114 28.201997,8.05908697 28.3242683,7.99927843 C28.3716865,7.97610833 28.4158307,7.94837268 28.4585071,7.92166429 C28.5140542,7.88708034 28.56644,7.85432261 28.6102454,7.84119669 L28.7002272,7.81437416 L28.725404,7.72283513 C28.7563388,7.60995221 28.6972918,7.47150228 28.6616152,7.41397651 C28.6077616,7.32700302 28.542618,7.29869668 28.4974578,7.29036458 L28.4600877,7.28694043 C28.3781219,7.28694043 28.3039462,7.33248166 28.2223191,7.38761053 L28.2048195,7.39925265 C28.164514,7.42481966 28.1248859,7.45449565 28.085032,7.48451406 C28.0501457,7.51076591 28.0150337,7.5374743 27.9786797,7.56007371 C27.9314872,7.58917901 27.8810207,7.61394706 27.8275058,7.6401989 C27.794426,7.65629242 27.7613461,7.67261421 27.7282662,7.6900774 C27.5976403,7.75901701 27.4317894,7.80296031 27.2212298,7.82453248 C27.0738946,7.83959875 26.900818,7.85808918 26.7340639,7.88194411 C26.6744524,7.89039036 26.6073894,7.8943852 26.522714,7.8943852 C26.4656992,7.8943852 26.4083457,7.89267313 26.351331,7.89096105 C26.2916066,7.88913483 26.2322209,7.88742276 26.1739642,7.88742276 L26.1614322,7.88742276 C25.8463267,7.88742276 25.5385598,7.81037931 25.1927454,7.64487857 C25.0159431,7.56007371 24.8528018,7.47173056 24.7080633,7.3824743 C24.6198879,7.32803026 24.4433114,7.23660537 24.2525095,7.23660537 C24.1647858,7.23660537 24.085078,7.25600891 24.0153054,7.29435942 C23.9526456,7.32038299 23.9057919,7.38407224 23.8830989,7.47709507 C23.8486642,7.61337636 23.885244,7.74885869 23.9787256,7.83092423 C24.0035638,7.8524964 24.0238859,7.86607887 24.0409338,7.87657961 C24.0860941,7.96640656 24.0755943,8.14423425 24.0670139,8.28759213 C24.0632882,8.35059655 24.0599011,8.41063337 24.0599011,8.46427843 C24.0599011,8.54246327 24.0526755,8.62190362 24.0449983,8.70602365 C24.0286277,8.88761791 24.0115797,9.07537564 24.0656591,9.27386239 C24.1392702,9.54425635 24.3137016,9.76328802 24.5987755,9.94328434 C24.9091392,10.13926 25.3392903,10.1606039 25.509996,10.1607181 L25.5105605,10.1607181 C25.8682295,10.1607181 26.1450616,10.0921209 26.3814754,9.94476814 C26.8798185,9.63442572 27.2076817,9.13449935 27.4757077,8.69038668 Z M25.5114637,6.62904646 C25.5114637,6.84145809 25.687137,7.01426369 25.9031157,7.01426369 C26.1189816,7.01426369 26.294542,6.84145809 26.294542,6.62904646 C26.294542,6.41663482 26.1189816,6.24382922 25.9031157,6.24382922 C25.687137,6.24382922 25.5114637,6.41663482 25.5114637,6.62904646 Z M26.8126427,6.97728284 C27.0285085,6.97728284 27.2040689,6.80447724 27.2040689,6.5920656 C27.2040689,6.37965397 27.0285085,6.20684837 26.8126427,6.20684837 C26.5967768,6.20684837 26.4211035,6.37965397 26.4211035,6.5920656 C26.4211035,6.80447724 26.5967768,6.97728284 26.8126427,6.97728284 Z" id="Fill-6"></path>
                                        <path d="M32.888474,17.2708951 C32.8032032,17.1460961 32.6833694,17.0426323 32.5286314,16.9606182 C32.3738934,16.8786042 32.2075586,16.8376545 32.0297407,16.8376545 C31.5887203,16.8376545 31.246273,16.9704828 31.0027397,17.2357954 C30.7588654,17.5012227 30.6370988,17.8485492 30.6370988,18.2777752 C30.6370988,18.7071158 30.7588654,19.0545571 31.0027397,19.3198697 C31.246273,19.5852969 31.5887203,19.7178958 32.0297407,19.7178958 C32.2229073,19.7178958 32.3894695,19.6751109 32.5286314,19.5890822 C32.667907,19.5032829 32.7878545,19.401769 32.888474,19.2847699 L34.0373552,20.502363 C33.7664216,20.7833901 33.4473953,20.9805679 33.0799352,21.093667 C32.7123615,21.2066514 32.3622966,21.2634303 32.0297407,21.2634303 C31.5962242,21.2634303 31.1882889,21.1931162 30.8052527,21.0527174 C30.4223302,20.9122038 30.0895468,20.7113554 29.8073575,20.4497134 C29.5248271,20.1881861 29.302441,19.874124 29.1400854,19.5071828 C28.9775025,19.1403564 28.8962111,18.7305156 28.8962111,18.2777752 C28.8962111,17.8251494 28.9775025,17.4154233 29.1400854,17.0483675 C29.302441,16.6816558 29.5248271,16.3674789 29.8073575,16.1059516 C30.0895468,15.8444243 30.4223302,15.6434613 30.8052527,15.5029477 C31.1882889,15.3624341 31.5962242,15.29212 32.0297407,15.29212 C32.3622966,15.29212 32.7123615,15.3488989 33.0799352,15.4618833 C33.4473953,15.5752118 33.7664216,15.7721602 34.0373552,16.0531873 L32.888474,17.2708951" id="Fill-17"></path>
                                        <path d="M34.5711501,12.2713651 L36.3118104,12.2713651 L36.3118104,21.1229168 L34.5711501,21.1229168 L34.5711501,12.2713651 Z" id="Fill-18"></path>
                                        <path d="M37.240352,18.2777752 C37.240352,17.8251494 37.3215298,17.4154233 37.483999,17.0483675 C37.6464682,16.6816558 37.8687406,16.3674789 38.1512711,16.1059516 C38.4335741,15.8444243 38.7663574,15.6434613 39.1493936,15.5029477 C39.5322024,15.3624341 39.9402514,15.29212 40.3736542,15.29212 C40.8068296,15.29212 41.2149923,15.3624341 41.5980285,15.5029477 C41.980951,15.6434613 42.313507,15.8444243 42.5959237,16.1059516 C42.8784541,16.3674789 43.1009539,16.6816558 43.2631957,17.0483675 C43.4257786,17.4154233 43.5070701,17.8251494 43.5070701,18.2777752 C43.5070701,18.7305156 43.4257786,19.1403564 43.2631957,19.5071828 C43.1009539,19.874124 42.8784541,20.1881861 42.5959237,20.4497134 C42.313507,20.7113554 41.980951,20.9122038 41.5980285,21.0527174 C41.2149923,21.1931162 40.8068296,21.2634303 40.3736542,21.2634303 C39.9402514,21.2634303 39.5322024,21.1931162 39.1493936,21.0527174 C38.7663574,20.9122038 38.4335741,20.7113554 38.1512711,20.4497134 C37.8687406,20.1881861 37.6464682,19.874124 37.483999,19.5071828 C37.3215298,19.1403564 37.240352,18.7305156 37.240352,18.2777752 L37.240352,18.2777752 Z M38.9810123,18.2777752 C38.9810123,18.7071158 39.1028926,19.0545571 39.3465396,19.3198697 C39.5903002,19.5852969 39.9326339,19.7178958 40.3736542,19.7178958 C40.8145608,19.7178958 41.1570082,19.5852969 41.4007688,19.3198697 C41.6444158,19.0545571 41.7662961,18.7071158 41.7662961,18.2777752 C41.7662961,17.8485492 41.6444158,17.5012227 41.4007688,17.2357954 C41.1570082,16.9704828 40.8145608,16.8376545 40.3736542,16.8376545 C39.9326339,16.8376545 39.5903002,16.9704828 39.3465396,17.2357954 C39.1028926,17.5012227 38.9810123,17.8485492 38.9810123,18.2777752 L38.9810123,18.2777752 Z" id="Fill-19"></path>
                                        <path d="M49.8432554,21.1229168 L48.1720623,21.1229168 L48.1720623,20.3501495 L48.1488687,20.3501495 C48.0869053,20.459578 48.0076603,20.5687772 47.9109065,20.6779763 C47.8141526,20.7874048 47.6963653,20.884904 47.556976,20.9707033 C47.4178141,21.056732 47.2590968,21.1268168 47.0812789,21.1814163 C46.9031199,21.2360159 46.7098395,21.2634303 46.500983,21.2634303 C46.0599627,21.2634303 45.7020529,21.1949515 45.4274811,21.0584526 C45.1527956,20.9220684 44.9400735,20.7326905 44.7892011,20.4906631 C44.6383287,20.2487503 44.5375955,19.9637085 44.4874563,19.6359965 C44.4370897,19.3081697 44.4119633,18.9530432 44.4119633,18.5705022 L44.4119633,15.4326336 L46.152851,15.4326336 L46.152851,18.2192756 C46.152851,18.383189 46.1585357,18.5529523 46.1702462,18.7285656 C46.1817293,18.9041789 46.2166335,19.066257 46.2747313,19.2144558 C46.3327154,19.362884 46.4216244,19.483783 46.5416856,19.5773823 C46.6614057,19.6710962 46.8335389,19.7178958 47.0579716,19.7178958 C47.2822905,19.7178958 47.4642014,19.6769462 47.603477,19.5950468 C47.7427525,19.5130328 47.8490567,19.4038337 47.922617,19.2671054 C47.9959498,19.1307212 48.0443836,18.976443 48.0675773,18.804615 C48.0907709,18.6330164 48.1024814,18.4533885 48.1024814,18.2660753 L48.1024814,15.4326336 L49.8432554,15.4326336 L49.8432554,21.1229168" id="Fill-20"></path>
                                        <path d="M56.8758185,21.1229168 L55.2743201,21.1229168 L55.2743201,20.3735493 L55.2511264,20.3735493 C55.1815455,20.4750632 55.0904763,20.5784124 54.9784874,20.6838262 C54.8661574,20.7892401 54.7347268,20.884904 54.5838544,20.9707033 C54.432982,21.056732 54.2665335,21.1268168 54.0848499,21.1814163 C53.9030527,21.2360159 53.7152297,21.2634303 53.5219493,21.2634303 C53.1041226,21.2634303 52.724952,21.1911662 52.3846648,21.0467527 C52.0441503,20.9024539 51.752297,20.6995408 51.5085363,20.4380135 C51.2647756,20.1764862 51.0770663,19.866324 50.9456357,19.5071828 C50.8140913,19.148271 50.7482623,18.7539154 50.7482623,18.3245748 C50.7482623,17.9265486 50.8081792,17.5460723 50.9282404,17.1830311 C51.0480742,16.8201046 51.2182747,16.4981279 51.4388417,16.2171007 C51.659295,15.9361883 51.9280684,15.7118254 52.2453893,15.5438974 C52.5625965,15.376084 52.9223254,15.29212 53.3246896,15.29212 C53.6882841,15.29212 54.0267521,15.3488989 54.3400937,15.4618833 C54.6534353,15.5752118 54.9106119,15.768375 55.1118509,16.0414874 L55.1350445,16.0414874 L55.1350445,12.2713651 L56.8758185,12.2713651 L56.8758185,21.1229168 L56.8758185,21.1229168 Z M55.2743201,18.2777752 C55.2743201,17.8485492 55.1525534,17.5012227 54.9087928,17.2357954 C54.6651458,16.9704828 54.3226985,16.8376545 53.8816782,16.8376545 C53.4407715,16.8376545 53.0983242,16.9704828 52.8546772,17.2357954 C52.6109166,17.5012227 52.4891499,17.8485492 52.4891499,18.2777752 C52.4891499,18.7071158 52.6109166,19.0545571 52.8546772,19.3198697 C53.0983242,19.5852969 53.4407715,19.7178958 53.8816782,19.7178958 C54.3226985,19.7178958 54.6651458,19.5852969 54.9087928,19.3198697 C55.1525534,19.0545571 55.2743201,18.7071158 55.2743201,18.2777752 L55.2743201,18.2777752 Z" id="Fill-21"></path>
                                        <path d="M61.3437784,17.1069817 C61.088421,16.7869549 60.7518857,16.6269415 60.3340591,16.6269415 C60.1870523,16.6269415 60.0439111,16.6620412 59.9047492,16.7322407 C59.76536,16.8025548 59.6957791,16.9236832 59.6957791,17.0952818 C59.6957791,17.2357954 59.7672928,17.339374 59.910434,17.4055587 C60.0535751,17.4719729 60.2354861,17.5304724 60.4559394,17.581172 C60.6763927,17.6319863 60.9123084,17.6864711 61.1638003,17.7450854 C61.4151785,17.8035849 61.6512079,17.8954636 61.8716612,18.0202626 C62.0922283,18.1451762 62.2739118,18.3149396 62.4171667,18.5294378 C62.5601941,18.7442802 62.6319353,19.0311573 62.6319353,19.3900691 C62.6319353,19.7571249 62.5524629,20.0594872 62.393973,20.2975 C62.2353694,20.5356274 62.0323113,20.7268406 61.7846851,20.8712541 C61.5369451,21.0156677 61.2585077,21.1170668 60.9491454,21.1755664 C60.6396694,21.2341806 60.3340591,21.2634303 60.0323143,21.2634303 C59.637795,21.2634303 59.2391826,21.2066514 58.8370457,21.093667 C58.4346815,20.9805679 58.0942807,20.7794902 57.8158432,20.4906631 L58.8718362,19.3081697 C59.0341917,19.5111975 59.2141699,19.6652463 59.4114295,19.7705454 C59.6086892,19.8759593 59.8389202,19.9286088 60.1020089,19.9286088 C60.3030205,19.9286088 60.4849314,19.8993591 60.6474006,19.8408595 C60.8098698,19.7822453 60.8910476,19.6751109 60.8910476,19.5188827 C60.8910476,19.3706839 60.8195339,19.2594201 60.6763927,19.185206 C60.5331378,19.1111066 60.3514543,19.0487071 60.131001,18.9978929 C59.910434,18.9471933 59.6744045,18.892479 59.4230264,18.8339795 C59.1715345,18.7753652 58.9356187,18.6875013 58.7151654,18.5705022 C58.4945984,18.4533885 58.3128012,18.2876398 58.16966,18.0729121 C58.0264051,17.8582992 57.9550051,17.5715368 57.9550051,17.2123956 C57.9550051,16.8767689 58.0226532,16.5879418 58.1580632,16.3459144 C58.2933594,16.1040016 58.4714048,15.9049885 58.6919718,15.7487604 C58.9124251,15.5927617 59.1658498,15.4777126 59.4520184,15.4033838 C59.738187,15.3292844 60.0282213,15.29212 60.3223485,15.29212 C60.6937879,15.29212 61.0689792,15.3468343 61.4481498,15.4561481 C61.8272068,15.5654619 62.1482796,15.7604603 62.4113683,16.0414874 L61.3437784,17.1069817" id="Fill-22"></path>
                                        <path d="M67.2507676,16.8376545 L65.7188502,16.8376545 L65.7188502,18.7344156 C65.7188502,18.8906437 65.7264677,19.0329926 65.7420438,19.1618062 C65.7575062,19.2905052 65.7922967,19.401769 65.8465289,19.4954829 C65.9005337,19.5890822 65.983758,19.6613463 66.096088,19.7120459 C66.2080769,19.7628602 66.3572438,19.78821 66.542793,19.78821 C66.6356813,19.78821 66.7575616,19.77846 66.9083203,19.7588455 C67.0591927,19.7394604 67.1732281,19.694496 67.2507676,19.6241819 L67.2507676,21.0878171 C67.0572599,21.1580165 66.8561346,21.2048161 66.6472781,21.2282159 C66.4383079,21.2517304 66.233317,21.2634303 66.0321917,21.2634303 C65.7380645,21.2634303 65.4673583,21.2321159 65.2198457,21.1697164 C64.9721058,21.1073169 64.7556317,21.007753 64.5699689,20.8712541 C64.384306,20.7347552 64.2392321,20.5570773 64.134747,20.3384496 C64.0303756,20.1200514 63.9780762,19.8545094 63.9780762,19.5422826 L63.9780762,16.8376545 L62.8639854,16.8376545 L62.8639854,15.4326336 L63.9780762,15.4326336 L63.9780762,13.7467002 L65.7188502,13.7467002 L65.7188502,15.4326336 L67.2507676,15.4326336 L67.2507676,16.8376545" id="Fill-23"></path>
                                        <path d="M71.5561447,20.4086491 L71.5329511,20.4086491 C71.339557,20.713076 71.082153,20.9317036 70.7611939,21.0644173 C70.4401211,21.1970162 70.1015394,21.2634303 69.7457898,21.2634303 C69.4827011,21.2634303 69.2292764,21.2262659 68.9856295,21.1521665 C68.7418688,21.0780671 68.5272139,20.9668033 68.3415511,20.8184898 C68.1558882,20.670291 68.0087678,20.4867631 67.9005307,20.2682502 C67.79218,20.0497373 67.7380615,19.7960099 67.7380615,19.5071828 C67.7380615,19.1793561 67.7978648,18.9023436 67.917926,18.6758014 C68.0378735,18.4496032 68.200229,18.2621753 68.4053336,18.1138618 C68.6103245,17.965663 68.8444211,17.8504992 69.1075098,17.7684852 C69.3703711,17.6864711 69.6431238,17.6261363 69.9256542,17.587022 C70.208071,17.5480223 70.4902603,17.5246225 70.7729044,17.5167078 C71.0552075,17.5091373 71.3163633,17.5050079 71.5561447,17.5050079 C71.5561447,17.1928957 71.4458612,16.945133 71.2254079,16.7614904 C71.0048409,16.5783066 70.7439124,16.4864279 70.4420539,16.4864279 C70.1557716,16.4864279 69.8946157,16.5469922 69.6588136,16.6678912 C69.4225568,16.7890196 69.2119949,16.9547683 69.0262184,17.1654813 L68.0977904,16.2054008 C68.4227288,15.9009739 68.8017857,15.672711 69.2351885,15.5204976 C69.668364,15.3682841 70.1171155,15.29212 70.5813295,15.29212 C71.0919307,15.29212 71.5114628,15.3565842 71.8404942,15.4852831 C72.1692982,15.6140968 72.4323869,15.8034747 72.6296466,16.0531873 C72.8269063,16.3031294 72.964249,16.6093917 73.0416749,16.9723181 C73.1188733,17.3352446 73.1576431,17.75495 73.1576431,18.2309756 L73.1576431,21.1229168 L71.5561447,21.1229168 L71.5561447,20.4086491 L71.5561447,20.4086491 Z M71.1268349,18.6290017 C70.9951769,18.6290017 70.8308885,18.6348517 70.6336289,18.6466663 C70.4362555,18.6583662 70.2466133,18.6916306 70.0649298,18.7461155 C69.8830189,18.8008297 69.7283946,18.8828438 69.6007158,18.9920429 C69.4730371,19.1013567 69.4091409,19.2535702 69.4091409,19.4485686 C69.4091409,19.6593963 69.4981635,19.8156245 69.6760952,19.9169089 C69.8540268,20.0184228 70.0396897,20.0691224 70.2331974,20.0691224 C70.4032841,20.0691224 70.5677998,20.0457226 70.7264034,19.998923 C70.8848933,19.9520086 71.0261017,19.8858239 71.1500285,19.7999099 C71.273728,19.7141106 71.372301,19.6047968 71.4458612,19.4720831 C71.5194214,19.3393695 71.5561447,19.1833708 71.5561447,19.0037428 L71.5561447,18.6290017 L71.1268349,18.6290017 L71.1268349,18.6290017 Z" id="Fill-24"></path>
                                        <path d="M77.9504278,17.2708951 C77.865157,17.1460961 77.7454369,17.0426323 77.5906989,16.9606182 C77.4358472,16.8786042 77.2695124,16.8376545 77.0916945,16.8376545 C76.6506742,16.8376545 76.3083405,16.9704828 76.0645799,17.2357954 C75.8209329,17.5012227 75.6990526,17.8485492 75.6990526,18.2777752 C75.6990526,18.7071158 75.8209329,19.0545571 76.0645799,19.3198697 C76.3083405,19.5852969 76.6506742,19.7178958 77.0916945,19.7178958 C77.2849749,19.7178958 77.4514234,19.6751109 77.5906989,19.5890822 C77.7299745,19.5032829 77.8498083,19.401769 77.9504278,19.2847699 L79.0994227,20.502363 C78.8284891,20.7833901 78.5092354,20.9805679 78.1418891,21.093667 C77.774429,21.2066514 77.4241367,21.2634303 77.0916945,21.2634303 C76.6582917,21.2634303 76.2502427,21.1931162 75.8673202,21.0527174 C75.4843977,20.9122038 75.1516143,20.7113554 74.8693113,20.4497134 C74.5866672,20.1881861 74.3643948,19.874124 74.2020393,19.5071828 C74.0395701,19.1403564 73.9582786,18.7305156 73.9582786,18.2777752 C73.9582786,17.8251494 74.0395701,17.4154233 74.2020393,17.0483675 C74.3643948,16.6816558 74.5866672,16.3674789 74.8693113,16.1059516 C75.1516143,15.8444243 75.4843977,15.6434613 75.8673202,15.5029477 C76.2502427,15.3624341 76.6582917,15.29212 77.0916945,15.29212 C77.4241367,15.29212 77.774429,15.3488989 78.1418891,15.4618833 C78.5092354,15.5752118 78.8284891,15.7721602 79.0994227,16.0531873 L77.9504278,17.2708951" id="Fill-25"></path>
                                        <path d="M79.610024,12.2713651 L81.350798,12.2713651 L81.350798,17.6807359 L83.2772348,15.4326336 L85.4125281,15.4326336 L83.1727497,17.996748 L85.4706259,21.1229168 L83.2772348,21.1229168 L81.3739916,18.2426755 L81.350798,18.2426755 L81.350798,21.1229168 L79.610024,21.1229168 L79.610024,12.2713651" id="Fill-26"></path>
                                    </g>
                                </g>
                            </g>
                        </g>
                    </g>
                </g>
            </g>
        </g>
    </g>
</svg>