<?xml version="1.0" encoding="UTF-8" standalone="no"?>
<svg width="265px" height="62px" viewBox="0 0 265 62" version="1.1" xmlns="http://www.w3.org/2000/svg" xmlns:xlink="http://www.w3.org/1999/xlink">
    <!-- Generator: Sketch 3.8.3 (29802) - http://www.bohemiancoding.com/sketch -->
    <!--<title>logoblack</title>-->
    <!--<desc>Created with Sketch.</desc>-->
    <!--<defs></defs>-->
    <!--<g id="Page-1" stroke="none" stroke-width="1" fill="none" fill-rule="evenodd">-->
        <!--<g id="logoblack">-->
            <!--<g id="Group" transform="translate(51.848351, 17.282784)" fill="#FFFFFF">-->
                <!--<path d="M0.512082475,14.8503918 L0.512082475,14.4023196 C0.512082475,6.01696909 6.65707218,0.192030928 13.9542475,0.192030928 C21.2514227,0.192030928 27.2043815,5.76092785 27.2043815,14.3383093 L27.2043815,14.7863815 C27.2043815,23.2357423 21.1874124,28.9966702 13.8262268,28.9966702 C6.52905156,29.0606805 0.512082475,23.1077217 0.512082475,14.8503918 L0.512082475,14.8503918 Z M25.3480825,14.7863815 L25.3480825,14.3383093 C25.3480825,6.40103094 20.0992372,1.72827835 13.9542475,1.72827835 C7.68123713,1.72827835 2.36838145,6.52905156 2.36838145,14.3383093 L2.36838145,14.7863815 C2.36838145,22.4676186 7.55321651,27.3324021 13.8902371,27.3324021 C20.1632475,27.4604227 25.3480825,22.5956392 25.3480825,14.7863815 L25.3480825,14.7863815 Z" id="Shape"></path>-->
                <!--<polygon id="Shape" points="30.0848454 0.640103094 32.069165 0.640103094 42.3748248 26.88433 52.6164744 0.640103094 54.4727733 0.640103094 43.5270104 28.6126083 41.0946187 28.6126083"></polygon>-->
                <!--<path d="M57.3532373,14.8503918 L57.3532373,14.4023196 C57.3532373,6.0809794 62.7301032,0.192030928 70.0272785,0.192030928 C76.9403919,0.192030928 81.9972064,4.92879383 81.9972064,13.6982062 L81.9972064,14.5303402 L59.2095362,14.5303402 C59.2735465,22.6596495 63.2421857,27.4604227 70.4113404,27.4604227 C75.2121136,27.4604227 78.8607012,25.3480825 80.0128868,20.9313712 L81.8051755,20.9313712 C80.5249693,26.1162062 76.1722682,29.0606805 70.4113404,29.0606805 C62.2180208,29.0606805 57.3532373,23.171732 57.3532373,14.8503918 L57.3532373,14.8503918 Z M80.2049177,12.9300825 C80.0128868,5.56889692 75.9802373,1.79228866 70.0272785,1.79228866 C64.0743197,1.79228866 59.7216187,6.20900002 59.2735465,12.9300825 L80.2049177,12.9300825 L80.2049177,12.9300825 Z" id="Shape"></path>-->
                <!--<path d="M88.5902683,0.640103094 L90.3825569,0.640103094 L90.3825569,7.04113404 C91.7907837,3.52056702 94.8632786,0.512082475 100.048114,0.320051547 L100.048114,1.98431959 C94.735258,2.17635052 90.3825569,5.18483506 90.3825569,12.9300825 L90.3825569,28.548598 L88.5902683,28.548598 L88.5902683,0.640103094 L88.5902683,0.640103094 Z" id="Shape"></path>-->
                <!--<path d="M106.449145,0.640103094 L110.865856,0.640103094 L110.865856,5.37686599 C112.466114,2.62442269 116.242722,0.192030928 120.339382,0.192030928 C127.700567,0.192030928 133.077433,5.56889692 133.077433,14.274299 L133.077433,14.7223712 C133.077433,23.2997526 128.020619,29.1887011 120.339382,29.1887011 C115.730639,29.1887011 112.466114,26.88433 110.865856,24.1318867 L110.865856,38.470196 L106.449145,38.470196 L106.449145,0.640103094 L106.449145,0.640103094 Z M128.532701,14.8503918 L128.532701,14.4023196 C128.532701,7.36118559 124.628072,3.77660826 119.89131,3.77660826 C114.706475,3.77660826 110.737835,7.23316497 110.737835,14.4023196 L110.737835,14.8503918 C110.737835,22.0195464 114.514444,25.4120928 119.95532,25.4120928 C125.524217,25.4120928 128.532701,21.6354846 128.532701,14.8503918 L128.532701,14.8503918 Z" id="Shape"></path>-->
                <!--<polygon id="Shape" points="146.199547 14.2102887 136.854042 0.640103094 142.038877 0.640103094 148.88798 10.8177423 155.673073 0.640103094 160.473846 0.640103094 151.192351 13.8902371 161.434 28.6126083 156.185155 28.6126083 148.631939 17.3467939 140.950701 28.6126083 136.213938 28.6126083"></polygon>-->
            <!--</g>-->
            <!--<rect id="XMLID_14_" fill="#6050C7" transform="translate(20.476604, 41.220040) rotate(-45.000000) translate(-20.476604, -41.220040) " x="13.2435079" y="33.9869449" width="14.4661912" height="14.4661912"/>-->
            <!--<rect id="XMLID_12_" fill="#6050C7" transform="translate(20.472379, 20.738662) rotate(-45.000000) translate(-20.472379, -20.738662) " x="13.2392833" y="13.5055661" width="14.4661912" height="14.4661912"/>-->
            <!--<rect id="Rectangle-path" fill="#8774FF" transform="translate(30.719341, 51.458617) rotate(-45.000000) translate(-30.719341, -51.458617) " x="23.4862456" y="44.2255219" width="14.4661912" height="14.4661912"/>-->
            <!--<rect id="Rectangle-path" fill="#8774FF" transform="translate(30.711020, 10.495924) rotate(-45.000000) translate(-30.711020, -10.495924) " x="23.4779243" y="3.26282846" width="14.4661912" height="14.4661912"/>-->
            <!--<rect id="Rectangle-path" fill="#3A2E85" transform="translate(10.233802, 30.981463) rotate(-45.000000) translate(-10.233802, -30.981463) " x="3.00070625" y="23.7483678" width="14.4661912" height="14.4661912"/>-->
            <rect id="Rectangle-path" fill="#6BEFF2" transform="translate(234.014842, 10.517713) rotate(-45.000000) translate(-234.014842, -10.517713) " x="226.781747" y="3.28461757" width="14.4661912" height="14.4661912"/>
            <rect id="Rectangle-path" fill="#6BEFF2" transform="translate(234.023164, 51.480471) rotate(-45.000000) translate(-234.023164, -51.480471) " x="226.790068" y="44.247375" width="14.4661912" height="14.4661912"/>
            <rect id="Rectangle-path" fill="#53C2CA" transform="translate(244.257580, 20.756290) rotate(-45.000000) translate(-244.257580, -20.756290) " x="237.024484" y="13.5231946" width="14.4661912" height="14.4661912"/>
            <rect id="Rectangle-path" fill="#53C2CA" transform="translate(244.261805, 41.237669) rotate(-45.000000) translate(-244.261805, -41.237669) " x="237.028709" y="34.0045733" width="14.4661912" height="14.4661912"/>
            <rect id="Rectangle-path" fill="#2B9DA0" transform="translate(254.500382, 30.994931) rotate(-45.000000) translate(-254.500382, -30.994931) " x="247.267286" y="23.7618356" width="14.4661912" height="14.4661912"/>
        <!--</g>-->
    <!--</g>-->
</svg>
